<?xml version="1.0" encoding="utf-8"?>
<!-- Generator: Adobe Illustrator 19.2.1, SVG Export Plug-In . SVG Version: 6.00 Build 0)  -->
<svg version="1.1" id="Layer_1" xmlns="http://www.w3.org/2000/svg" xmlns:xlink="http://www.w3.org/1999/xlink" x="0px" y="0px"
	 viewBox="0 0 841.9 314.3" style="enable-background:new 0 0 841.9 314.3;" xml:space="preserve">
<style type="text/css">
	.st0{enable-background:new    ;}
	.st1{fill:#3A3A3A;}
	.st2{font-family:'ArialMT';}
	.st3{font-size:245.2742px;}
</style>
<g class="st0">
	<path class="st1" d="M38,141.2v75.3c0,2.7-0.5,4.4-1.3,5.2S34,223,31.5,223h-13V58c0-2.7,0.5-4.4,1.3-5.2s2.7-1.3,5.2-1.3h13v75.6
		h37.7v7.6c0,2.7-0.3,4.4-1.2,5.2c-0.7,0.8-2.4,1.3-5.1,1.3H38z M105.3,51.5v165c0,2.7-0.5,4.4-1.3,5.2s-2.7,1.3-5.2,1.3h-13V58
		c0-2.7,0.5-4.4,1.3-5.2s2.7-1.3,5.2-1.3H105.3z"/>
</g>
<text transform="matrix(1 0 0 1 122.8292 223.1447)" class="st1 st2 st3">   </text>
<g class="st0">
	<path class="st1" d="M376.6,51.5v7.6c0,2.7-0.5,4.4-1.3,5.2c-0.8,0.8-2.7,1.3-5.2,1.3h-29.5v150.9c0,2.7-0.5,4.4-1.3,5.2
		s-2.7,1.3-5.2,1.3H321V65.6h-35.5V58c0-2.7,0.5-4.4,1.3-5.2s2.7-1.3,5.2-1.3H376.6z"/>
	<path class="st1" d="M400.2,223.1v-165c0-2.7,0.5-4.4,1.3-5.2s2.7-1.3,5.2-1.3h13V209h51.7v7.6c0,2.7-0.5,4.4-1.3,5.2
		s-2.7,1.3-5.2,1.3H400.2z"/>
	<path class="st1" d="M514.8,141.2v67.7h46.8v7.6c0,2.7-0.5,4.4-1.3,5.2s-2.7,1.3-5.2,1.3h-59.8V58c0-2.7,0.5-4.4,1.3-5.2
		s2.7-1.3,5.2-1.3h59.8v7.6c0,2.7-0.3,4.4-1.2,5.2c-0.7,0.8-2.4,1.3-5.1,1.3h-40.7v61.3h39.6v7.6c0,2.7-0.3,4.4-1.2,5.2
		c-0.7,0.8-2.4,1.3-5.1,1.3h-33.2v0.2H514.8z"/>
	<path class="st1" d="M610.3,141.2v75.3c0,2.7-0.5,4.4-1.3,5.2s-2.7,1.3-5.2,1.3h-13V74.7c0-8.4,1.7-14.5,5.2-18s9.6-5.2,18-5.2
		h35.4c8.4,0,14.5,1.7,18,5.2s5.2,9.6,5.2,18v141.8c0,2.7-0.5,4.4-1.3,5.2s-2.7,1.3-5.2,1.3h-13V79.6c0-4.7-0.7-8.3-1.9-10.3
		c-1.2-2.2-4-3.4-8.3-3.7h-22.6c-4.4,0.3-7.2,1.5-8.4,3.7s-1.7,5.6-1.7,10.3v47.3H643v7.6c0,2.7-0.3,4.4-1.2,5.2
		c-0.7,0.8-2.4,1.3-5.1,1.3h-26.6v0.2H610.3z"/>
	<path class="st1" d="M743.1,223.1c-2.7,0-4.2-0.5-5.1-1.3c-0.7-0.8-1.2-2.7-1.2-5.2V209h21.4c5.1,0,8.3-1,9.6-3.2s2-5.7,2-10.8
		V79.6c0-5.1-0.7-8.6-2-10.8c-1.3-2.2-4.5-3.2-9.6-3.2h-31.1V223h-19.7V58c0-2.7,0.5-4.4,1.3-5.2s2.7-1.3,5.2-1.3h52
		c8.4,0,14.5,1.7,18,5.2s5.2,9.6,5.2,18v125.1c0,8.6-1.7,14.5-5.2,18s-9.6,5.2-18,5.2L743.1,223.1L743.1,223.1z"/>
</g>
<g>
	<g>
		<polygon class="st1" points="179.2,173.6 179.2,94.4 176.5,94.4 176.5,173.6 176.5,176.4 179.2,176.4 258.4,176.4 258.4,173.6 		
			"/>
		<g>
			<rect x="185.6" y="162.5" class="st1" width="15" height="9.9"/>
			<rect x="185.6" y="151.2" class="st1" width="15" height="9.9"/>
		</g>
		<g>
			<rect x="221.3" y="162.5" class="st1" width="15" height="9.9"/>
			<rect x="221.3" y="151.2" class="st1" width="15" height="9.9"/>
			<rect x="221.3" y="139.9" class="st1" width="15" height="9.9"/>
		</g>
		<g>
			<rect x="203.5" y="162.5" class="st1" width="15" height="9.9"/>
			<rect x="203.5" y="151.2" class="st1" width="15" height="9.9"/>
			<rect x="203.5" y="139.9" class="st1" width="15" height="9.9"/>
			<rect x="203.5" y="128.6" class="st1" width="15" height="9.9"/>
			<rect x="203.5" y="117.3" class="st1" width="15" height="9.9"/>
		</g>
		<g>
			<rect x="239.2" y="162.5" class="st1" width="15" height="9.9"/>
			<rect x="239.2" y="151.2" class="st1" width="15" height="9.9"/>
			<rect x="239.2" y="139.9" class="st1" width="15" height="9.9"/>
			<rect x="239.2" y="128.6" class="st1" width="15" height="9.9"/>
			<rect x="239.2" y="117.3" class="st1" width="15" height="9.9"/>
			<rect x="239.2" y="106" class="st1" width="15" height="9.9"/>
		</g>
	</g>
	<path class="st1" d="M278.9,73.7c-34-34-89.1-34-123.1,0s-34,89.1,0,123.1s89.1,34,123.1,0S312.9,107.7,278.9,73.7z M164.3,188.6
		c-29.5-29.5-29.5-77.1,0-106.4c29.5-29.5,77.1-29.5,106.4,0c29.5,29.5,29.5,77.1,0,106.4S193.6,217.8,164.3,188.6z"/>
	
		<rect x="138.6" y="198.3" transform="matrix(0.7071 -0.7071 0.7071 0.7071 -99.3808 165.4928)" class="st1" width="22.9" height="8.8"/>
	
		<rect x="140.1" y="202" transform="matrix(0.7071 -0.7071 0.7071 0.7071 -100.0234 167.0193)" class="st1" width="22.9" height="4.4"/>
	
		<rect x="63.1" y="229.9" transform="matrix(0.7071 -0.7071 0.7071 0.7071 -136.4547 150.2134)" class="st1" width="100" height="19.9"/>
	
		<rect x="66.5" y="238.4" transform="matrix(0.7071 -0.7071 0.7071 0.7071 -137.9173 153.6495)" class="st1" width="100" height="9.9"/>
	
		<rect x="146" y="191.8" transform="matrix(0.7071 -0.7071 0.7071 0.7071 -101.0037 164.8563)" class="st1" width="4.9" height="25.1"/>
	
		<rect x="150.3" y="202.6" transform="matrix(0.7071 -0.7071 0.7071 0.7071 -102.9638 169.2006)" class="st1" width="4.9" height="12.5"/>
	<path class="st1" d="M278.9,73.7l-8.3,8.3c29.5,29.5,29.5,77.1,0,106.4c-29.5,29.5-77.1,29.5-106.4,0l-8.3,8.3
		c34,34,89.1,34,123.1,0C312.9,162.8,312.9,107.7,278.9,73.7z"/>
</g>
<g class="st0">
	<path class="st1" d="M798.9,57.4c0-1.7,0.3-2.7,1-3.4s1.9-1,3.4-1h15.8c1.7,0,2.7,0.3,3.4,1s1,1.9,1,3.4V81c0,1.7-0.3,2.7-1,3.4
		c-0.7,0.7-1.9,1-3.4,1h-15.8c-1.7,0-2.7-0.3-3.4-1s-1-1.9-1-3.4V57.4z M802.6,79.9c0,1,0.2,1.7,0.3,2c0.2,0.3,0.8,0.7,1.9,0.7h13
		c1,0,1.5-0.2,1.9-0.7c0.2-0.3,0.3-1,0.3-2V58.2c0-1-0.2-1.7-0.3-2s-0.8-0.7-1.9-0.7h-13c-1,0-1.5,0.2-1.9,0.7c-0.2,0.3-0.3,1-0.3,2
		V79.9z M812.8,58.2c1.7,0,2.7,0.3,3.4,1s1,1.9,1,3.4v3c0,1.3-0.2,2.4-0.7,3c-0.5,0.7-1.2,1.2-2.2,1.3l3,9.9h-1.9
		c-0.5,0-0.8,0-1-0.3c-0.2-0.2-0.5-0.5-0.5-1l-2.5-8.4h-3v8.4c0,0.5-0.2,0.8-0.3,1c-0.2,0.2-0.5,0.3-1,0.3h-2V59.6
		c0-0.5,0-0.8,0.3-1c0.2-0.2,0.5-0.3,1-0.3L812.8,58.2L812.8,58.2z M814,63.6c0-1-0.2-1.7-0.3-2c-0.2-0.3-0.8-0.7-1.9-0.7h-3.5v6.9
		h3.5c1,0,1.5-0.2,1.9-0.7c0.2-0.3,0.3-1,0.3-2V63.6z"/>
</g>
</svg>
