<svg xmlns="http://www.w3.org/2000/svg" xmlns:xlink="http://www.w3.org/1999/xlink" viewBox="0 0 1457.61 359.46"><defs><style>.cls-1{fill:#293136;}.cls-2{fill:url(#linear-gradient);}.cls-3{fill:url(#linear-gradient-2);}</style><linearGradient id="linear-gradient" x1="-60.55" y1="238.36" x2="247.43" y2="238.36" gradientTransform="translate(299.33 -94.11) rotate(45) scale(1.17)" gradientUnits="userSpaceOnUse"><stop offset="0" stop-color="#117bbf"/><stop offset="0.07" stop-color="#1b85c0"/><stop offset="0.29" stop-color="#369dc2"/><stop offset="0.52" stop-color="#49afc3"/><stop offset="0.75" stop-color="#54bac4"/><stop offset="1" stop-color="#58bdc4"/></linearGradient><linearGradient id="linear-gradient-2" x1="248.5" y1="179.73" x2="359.46" y2="179.73" gradientUnits="userSpaceOnUse"><stop offset="0" stop-color="#117bbf" stop-opacity="0.6"/><stop offset="0.58" stop-color="#43a9c3" stop-opacity="0.88"/><stop offset="0.85" stop-color="#58bdc4"/></linearGradient></defs><title>Asset 8</title><g id="Layer_2" data-name="Layer 2"><g id="Layer_1-2" data-name="Layer 1"><path class="cls-1" d="M629.22,104.3l-46.8,140h-21l-38.2-111.8L485,244.3h-21.4l-46.8-140h20.6l37.8,113.8,39.4-113.8H533l38.6,114.4,38.6-114.4Z"/><path class="cls-1" d="M738.22,197.7h-86a33.3,33.3,0,0,0,12.3,22.5q10.5,8.51,26.1,8.5,19,0,30.6-12.8l10.6,12.4a46.42,46.42,0,0,1-17.9,12.8,62.39,62.39,0,0,1-23.9,4.4q-16.8,0-29.8-6.9a49.15,49.15,0,0,1-20.1-19.3,55.27,55.27,0,0,1-7.1-28,56.19,56.19,0,0,1,6.9-27.8,49.38,49.38,0,0,1,19-19.3,54.09,54.09,0,0,1,27.3-6.9,53.06,53.06,0,0,1,27.1,6.9,48.48,48.48,0,0,1,18.6,19.3q6.69,12.41,6.7,28.4A56.84,56.84,0,0,1,738.22,197.7Zm-75.1-35.8q-9.3,8.4-10.9,22h68q-1.61-13.4-10.9-21.9t-23.1-8.5Q672.42,153.5,663.12,161.9Z"/><path class="cls-1" d="M849,144.1a48.93,48.93,0,0,1,19.1,19q6.9,12.19,6.9,28.2t-6.9,28.3A48.72,48.72,0,0,1,849,238.7a55.79,55.79,0,0,1-27.6,6.8,50.13,50.13,0,0,1-21.6-4.6,41.48,41.48,0,0,1-16.2-13.4v16.8h-18.4V95.9h19.2v58.4a40.75,40.75,0,0,1,16-12.7,50.73,50.73,0,0,1,21-4.3A55.79,55.79,0,0,1,849,144.1ZM838.12,224a33.87,33.87,0,0,0,12.8-13.2,42.8,42.8,0,0,0,0-39,33.21,33.21,0,0,0-12.8-13.1,38.5,38.5,0,0,0-36.5,0,32.24,32.24,0,0,0-12.8,13.1,43.63,43.63,0,0,0,0,39,32.87,32.87,0,0,0,12.8,13.2,37.78,37.78,0,0,0,36.5,0Z"/><path class="cls-1" d="M1001.41,173.5h19.2v54.6a74.63,74.63,0,0,1-24.2,13.2,90.66,90.66,0,0,1-28.8,4.6q-21.2,0-38.2-9.3a69,69,0,0,1-26.7-25.6,70.46,70.46,0,0,1-9.7-36.7,71,71,0,0,1,9.7-36.8,67.87,67.87,0,0,1,26.8-25.6q17.1-9.2,38.5-9.2a81.12,81.12,0,0,1,30.5,5.5,62.32,62.32,0,0,1,23.31,16.1l-12.41,12.4q-16.8-16.2-40.59-16.2a59.17,59.17,0,0,0-28.71,6.9,50.63,50.63,0,0,0-19.9,19.2,56.5,56.5,0,0,0,0,55.2,51.36,51.36,0,0,0,19.9,19.3,58,58,0,0,0,28.5,7q18.81,0,32.8-9Z"/><path class="cls-1" d="M1128.31,148.1q11.7,10.8,11.7,32.2v64h-18.2v-14a30.39,30.39,0,0,1-13.7,11.3q-8.89,3.9-21.1,3.9-17.8,0-28.5-8.6t-10.7-22.6q0-14,10.2-22.5t32.4-8.5h30.4v-3.8q0-12.41-7.2-19t-21.2-6.6A56,56,0,0,0,1074,157a47.37,47.37,0,0,0-15.2,8.3l-8-14.4a58,58,0,0,1,19.6-10.1,82.14,82.14,0,0,1,24.2-3.5Q1116.62,137.3,1128.31,148.1Zm-19.1,77.7a28.07,28.07,0,0,0,11.6-13.9V197.1h-29.6q-24.4,0-24.4,16.4a14.86,14.86,0,0,0,6.2,12.6q6.2,4.6,17.2,4.6T1109.21,225.8Z"/><path class="cls-1" d="M1254.21,228.5v15.8h-88.8V231.9l62.6-77.8h-61.4V138.3h86v12.6L1190,228.5Z"/><path class="cls-1" d="M1373.61,197.7h-86a33.3,33.3,0,0,0,12.3,22.5q10.5,8.51,26.1,8.5,19,0,30.6-12.8l10.6,12.4a46.42,46.42,0,0,1-17.9,12.8,62.35,62.35,0,0,1-23.9,4.4q-16.8,0-29.8-6.9a49.15,49.15,0,0,1-20.1-19.3,55.38,55.38,0,0,1-7.1-28,56.19,56.19,0,0,1,6.9-27.8,49.38,49.38,0,0,1,19-19.3,54.14,54.14,0,0,1,27.3-6.9,53,53,0,0,1,27.1,6.9,48.48,48.48,0,0,1,18.6,19.3q6.7,12.41,6.7,28.4A54.08,54.08,0,0,1,1373.61,197.7Zm-75.1-35.8q-9.3,8.4-10.9,22h68q-1.6-13.4-10.9-21.9t-23.1-8.5Q1307.81,153.5,1298.51,161.9Z"/><path class="cls-1" d="M1433.81,142.1q9.8-4.8,23.8-4.8v18.6a38.23,38.23,0,0,0-4.4-.2q-15.6,0-24.5,9.3t-8.9,26.5v52.8h-19.2v-106H1419v17.8A32.78,32.78,0,0,1,1433.81,142.1Z"/><rect class="cls-2" x="29.73" y="29.73" width="300" height="300" rx="78" ry="78" transform="translate(-74.45 179.73) rotate(-45)"/><path class="cls-3" d="M336.71,124.57,302.86,90.73a100,100,0,0,0,0,178l33.85-33.85A78.24,78.24,0,0,0,336.71,124.57Z"/></g></g></svg>